<?xml version="1.0" encoding="UTF-8" standalone="no"?>
<svg
   xmlns:dc="http://purl.org/dc/elements/1.1/"
   xmlns:cc="http://creativecommons.org/ns#"
   xmlns:rdf="http://www.w3.org/1999/02/22-rdf-syntax-ns#"
   xmlns:svg="http://www.w3.org/2000/svg"
   xmlns="http://www.w3.org/2000/svg"
   xmlns:sodipodi="http://sodipodi.sourceforge.net/DTD/sodipodi-0.dtd"
   xmlns:inkscape="http://www.inkscape.org/namespaces/inkscape"
   width="53.386806mm"
   height="63.977463mm"
   viewBox="0 0 53.386806 63.977463"
   version="1.1"
   id="svg8"
   inkscape:version="1.0.2-2 (e86c870879, 2021-01-15)"
   sodipodi:docname="gis_2.svg">
  <defs
     id="defs2">
    <rect
       x="109.99107"
       y="207.69792"
       width="21.544643"
       height="13.229167"
       id="rect62" />
    <rect
       x="109.99107"
       y="207.69792"
       width="21.544643"
       height="13.229167"
       id="rect910" />
  </defs>
  <sodipodi:namedview
     id="base"
     pagecolor="#ffffff"
     bordercolor="#666666"
     borderopacity="1.0"
     inkscape:pageopacity="0.0"
     inkscape:pageshadow="2"
     inkscape:zoom="0.7666181"
     inkscape:cx="354.27789"
     inkscape:cy="408.35681"
     inkscape:document-units="mm"
     inkscape:current-layer="layer1"
     inkscape:document-rotation="0"
     showgrid="false"
     inkscape:window-width="1920"
     inkscape:window-height="1017"
     inkscape:window-x="-8"
     inkscape:window-y="-8"
     inkscape:window-maximized="1"
     fit-margin-top="0"
     fit-margin-left="0"
     fit-margin-right="0"
     fit-margin-bottom="0" />
  <metadata
     id="metadata5">
    <rdf:RDF>
      <cc:Work
         rdf:about="">
        <dc:format>image/svg+xml</dc:format>
        <dc:type
           rdf:resource="http://purl.org/dc/dcmitype/StillImage" />
        <dc:title></dc:title>
      </cc:Work>
    </rdf:RDF>
  </metadata>
  <g
     inkscape:label="Réteg 1"
     inkscape:groupmode="layer"
     id="layer1"
     transform="translate(-64.255022,-40.717342)">
    <path
       style="fill:#000000;stroke-width:0.352778"
       d="m 80.147651,104.33657 c -0.55338,-0.55339 -0.54679,-1.51419 0.0135,-1.96904 0.64587,-0.5243 5.72673,-2.06478 8.37847,-2.540285 4.281,-0.76766 3.88056,-0.47891 3.88056,-2.79815 0,-2.23017 -0.25531,-2.48707 -2.48352,-2.49905 -2.87726,-0.0155 -8.72408,-2.24836 -12.56571,-4.798819 -6.66165,-4.422676 -11.10008,-11.167554 -12.6195,-19.177292 -1.82897,-9.641551 1.47598,-19.865241 8.59166,-26.577812 3.34627,-3.156697 4.02175,-3.578441 4.9423,-3.085775 1.21221,0.648755 0.91581,1.904061 -0.71672,3.035404 -1.93714,1.342436 -5.16021,4.916509 -6.61666,7.337223 -8.27786,13.758327 -2.80402,31.74229 11.6573,38.29937 8.09674,3.671231 18.013809,3.106721 25.172019,-1.432874 1.76747,-1.120898 2.85998,-1.199423 3.45595,-0.248397 0.50814,0.810859 -0.0842,1.444554 -2.91334,3.116555 -2.5397,1.500957 -6.73726,2.991117 -9.426389,3.346407 -3.88901,0.51384 -3.65517,0.3429 -3.65517,2.67194 0,1.87903 0.0774,2.09667 0.79375,2.23319 7.185589,1.369395 11.098039,2.540315 11.705409,3.503195 0.26472,0.41967 0.26015,0.77224 -0.0157,1.20967 -0.3579,0.56753 -1.46926,0.62481 -13.770049,0.70968 -10.11264,0.0698 -13.48513,-0.0121 -13.80818,-0.33514 z m 9.47456,-15.46264 c -5.3667,-1.13623 -9.45141,-3.42308 -13.18664,-7.382626 -2.68292,-2.84403 -4.44822,-5.856209 -5.59324,-9.543855 -1.16722,-3.75912 -1.16722,-9.646434 0,-13.405554 1.29111,-4.158167 2.99128,-6.888244 6.37288,-10.233396 5.0628,-5.008233 9.64576,-6.876376 16.79249,-6.845102 3.65091,0.01598 4.64291,0.153582 7.210369,1.000184 7.26486,2.39554 13.27765,8.591804 15.60222,16.078314 0.65919,2.122979 0.82154,3.447542 0.82154,6.702777 0,6.932964 -2.03688,11.802289 -7.02256,16.787963 -4.68696,4.686959 -9.39839,6.769473 -15.906019,7.030673 -1.94027,0.07788 -4.23124,-0.0073 -5.09104,-0.189378 z m 8.92416,-3.003609 c 0.53967,-0.222473 0.37059,-0.380457 -0.93932,-0.877687 -0.87859,-0.333509 -2.28599,-1.070186 -3.12756,-1.637061 -0.84157,-0.566875 -1.69718,-1.13308 -1.90135,-1.258228 -0.37132,-0.227602 -4.72486,2.585445 -4.8527,3.135577 -0.2163,0.930779 8.81834,1.462958 10.82093,0.637399 z m -11.44278,-3.915555 2.82314,-1.987123 -2.85277,-3.03996 c -1.56902,-1.671976 -3.00445,-2.99624 -3.18984,-2.942808 -0.1854,0.05343 -1.74547,1.085306 -3.46682,2.293055 l -3.12975,2.195908 1.48091,1.534756 c 1.41193,1.463272 4.71235,3.933299 5.25563,3.933299 0.141,0 1.52678,-0.894207 3.0795,-1.987127 z m 17.246739,1.110693 c 0.1675,-0.167489 -4.17156,-6.355648 -4.455829,-6.354709 -0.51952,0.0018 -4.98327,3.192631 -4.88981,3.495484 0.17457,0.565693 3.5277,2.277089 5.530809,2.82285 1.64336,0.447749 3.38684,0.464372 3.81483,0.03637 z m 3.85622,-5.635223 c 0.0947,-1.180295 -0.016,-3.053104 -0.24622,-4.161793 l -0.41848,-2.015801 -2.63194,1.776015 c -1.68295,1.135644 -2.54278,1.928706 -2.38466,2.199488 0.45547,0.780027 3.41956,5.002035 3.96205,5.643502 0.50823,0.600953 0.56239,0.583755 1.04155,-0.33075 0.27799,-0.530568 0.58296,-1.930365 0.6777,-3.110661 z M 95.229491,76.30187 c 1.55934,-1.09757 2.83515,-2.127649 2.83515,-2.289062 0,-0.218204 -3.56939,-5.507607 -4.47021,-6.624311 -0.205,-0.254129 -6.79674,4.359363 -6.80803,4.764873 -0.01,0.345111 5.15791,6.144079 5.47505,6.144079 0.0731,0 1.40871,-0.89801 2.96804,-1.995579 z m 18.334129,-3.505839 c 0.73342,-1.944551 1.58561,-6.106585 1.30732,-6.384875 -0.18391,-0.18391 -4.28888,2.506061 -4.60509,3.017697 -0.10437,0.168878 0.0418,1.399961 0.32478,2.73574 0.283,1.33578 0.52225,3.063689 0.53168,3.8398 l 0.0171,1.411111 0.87315,-1.411111 c 0.48024,-0.776111 1.1782,-2.219875 1.55102,-3.208362 z m -34.372589,0.966932 c 1.55222,-1.06427 2.9429,-2.036758 3.09039,-2.161082 0.14749,-0.124324 -0.61821,-1.923327 -1.70157,-3.997787 l -1.96974,-3.771743 -2.66177,1.852688 c -1.46397,1.018979 -2.74573,2.067854 -2.84835,2.330835 -0.48948,1.25437 2.09524,8.376836 2.87288,7.916507 0.21777,-0.128909 1.66594,-1.105147 3.21816,-2.169418 z m 24.383399,-3.278425 c 1.44457,-0.998628 2.71607,-1.960632 2.82556,-2.137786 0.25188,-0.407562 -3.04547,-7.005465 -3.60913,-7.221764 -0.30971,-0.118844 -4.924199,2.830706 -6.815719,4.35656 -0.21851,0.176262 4.329439,6.795474 4.677679,6.808034 0.16232,0.0059 1.47705,-0.806415 2.92161,-1.805044 z M 88.447461,67.303091 c 1.69993,-1.196203 3.15795,-2.229085 3.24002,-2.295295 0.21851,-0.176262 -4.32944,-6.795474 -4.67768,-6.808034 -0.33169,-0.01196 -5.45767,3.474411 -5.71095,3.884233 -0.349,0.564688 3.10481,7.39401 3.73938,7.39401 0.17514,0 1.70929,-0.978711 3.40923,-2.174914 z m 26.112519,-4.822724 c 0.28844,-0.738989 -0.54241,-3.941043 -1.59887,-6.161952 l -0.96175,-2.021801 -3.35139,2.317623 c -1.84326,1.274693 -3.35138,2.428319 -3.35138,2.563613 0,0.135294 0.84174,1.875779 1.87054,3.867745 l 1.87055,3.621756 2.66918,-1.857867 c 1.46805,-1.021827 2.75196,-2.069929 2.85312,-2.329117 z M 75.131571,62.77694 c 1.14148,-0.775169 2.16899,-1.560776 2.28333,-1.745793 0.11435,-0.185016 0.0378,-1.019225 -0.17011,-1.853795 -0.20791,-0.834571 -0.49005,-2.543273 -0.627,-3.797115 l -0.24898,-2.279714 -1.11523,2.103325 c -1.46476,2.762523 -3.14341,8.982491 -2.4242,8.982491 0.12472,0 1.1607,-0.63423 2.30219,-1.409399 z m 22.48146,-1.852942 c 1.7889,-1.213143 3.257339,-2.381775 3.263189,-2.59696 0.006,-0.215186 -1.219669,-1.695204 -2.723379,-3.288929 l -2.73403,-2.897684 -2.91042,2.00372 c -1.60073,1.102047 -2.91041,2.138266 -2.91041,2.30271 0,0.35381 4.32917,6.649394 4.58611,6.669236 0.097,0.0075 1.64003,-0.97895 3.42894,-2.192093 z M 85.133261,55.2612 c -0.6603,-1.112261 -4.08665,-5.902234 -4.32921,-6.052143 -0.99517,-0.615054 -1.75127,4.883164 -1.10176,8.011845 l 0.41848,2.0158 2.63194,-1.776015 c 1.69314,-1.142519 2.54227,-1.927066 2.38055,-2.199487 z m 22.769759,-1.472502 2.59046,-1.754586 -2.25342,-2.125969 c -1.23938,-1.169284 -2.81289,-2.422459 -3.49669,-2.784836 l -1.24327,-0.658866 -2.87851,2.026103 -2.878519,2.026102 2.891969,3.111281 2.89198,3.111281 0.89277,-0.597962 c 0.49103,-0.328879 2.05848,-1.387526 3.48323,-2.352548 z M 90.383781,52.191895 c 1.30531,-0.873125 2.32754,-1.74625 2.27162,-1.940277 -0.17771,-0.616531 -5.28715,-2.945625 -6.93798,-3.162618 -2.75111,-0.361619 -2.7854,0.04607 -0.30679,3.646939 1.22214,1.775497 2.30707,3.186615 2.41096,3.135817 0.10389,-0.0508 1.25687,-0.806736 2.56219,-1.679861 z m 7.76755,-5.425076 c 1.10865,-0.752473 1.941529,-1.488188 1.850839,-1.634923 -0.347889,-0.562899 -4.931029,-1.142968 -7.590419,-0.96069 -3.53246,0.242121 -4.43981,0.682136 -2.57052,1.246564 0.73933,0.223242 2.29395,1.03224 3.45469,1.797774 1.16075,0.765534 2.27453,1.285574 2.47507,1.155644 0.20054,-0.12993 1.27169,-0.851896 2.38034,-1.604369 z"
       id="path34" />
    <g
       id="g900"
       transform="translate(-29.132379,-4.0090429)">
      <path
         style="fill:#000000;stroke-width:0.340681"
         d="m 83.555272,213.79657 -0.828636,-0.84387 v -0.98131 c 0,-1.15179 0.546095,-2.01026 1.646439,-2.58818 l 0.79096,-0.41543 3.674118,-9.11065 3.674119,-9.11065 -0.206721,-1.60774 -0.206722,-1.60774 0.868828,-0.8848 c 1.021567,-1.04033 2.033622,-1.1178 3.431464,-0.26264 l 1.012772,0.61959 8.846327,-0.53492 8.84632,-0.53492 0.38599,-0.39453 0.38598,-0.39452 -3.29677,-11.81031 -3.29678,-11.81031 -1.12485,-1.07776 -1.12484,-1.07777 v -1.0866 -1.08659 l 0.82864,-0.84387 0.82863,-0.84387 h 1.06699 1.06698 l 1.05832,1.17232 1.0583,1.17233 10.19284,3.25191 10.19284,3.2519 1.2351,-0.3846 1.23511,-0.38461 4.59765,-6.80847 4.59764,-6.80847 -0.0994,-1.17497 -0.0994,-1.17497 0.85367,-0.86936 0.85366,-0.86936 h 1.04348 1.04346 l 0.82863,0.84387 0.82864,0.84387 v 1.06264 1.06266 l -0.82864,0.84386 c -0.45574,0.46413 -1.12985,0.84386 -1.49801,0.84386 h -0.66938 l -4.65408,6.88186 -4.65407,6.88185 0.10047,1.18754 0.10046,1.18753 -0.85366,0.86937 -0.85367,0.86936 h -1.06699 -1.06698 l -1.05832,-1.17164 -1.0583,-1.17163 -10.12776,-3.2671 c -5.57027,-1.79691 -10.16293,-3.23218 -10.20592,-3.1895 -0.043,0.0427 1.38794,5.32769 3.17983,11.74445 l 3.25797,11.66683 1.12448,1.07776 1.12448,1.07777 v 1.0866 1.0866 l -0.82864,0.84387 c -0.98353,1.00162 -2.00866,1.06814 -3.39126,0.22008 l -1.01278,-0.62121 -8.95456,0.53654 -8.954563,0.53656 -0.498008,0.42987 c -0.273909,0.23643 -0.820751,0.70055 -1.215207,1.03139 l -0.71718,0.60153 -3.589475,8.95927 -3.589457,8.95927 0.213353,1.58517 0.213343,1.58516 -0.870837,0.88685 -0.870837,0.88685 H 85.42737 84.383907 Z"
         id="path58" />
      <text
         xml:space="preserve"
         id="text60"
         style="font-style:normal;font-weight:normal;font-size:10.5833px;line-height:1.25;font-family:sans-serif;white-space:pre;shape-inside:url(#rect62);fill:#000000;fill-opacity:1;stroke:none;"
         inkscape:transform-center-x="48.53657"
         inkscape:transform-center-y="-6.7725406"
         transform="matrix(1.9908796,0,0,1.9908796,-111.46581,-221.97081)"><tspan
           x="109.99023"
           y="217.35273"><tspan>GIS</tspan></tspan></text>
    </g>
    <g
       id="g908"
       transform="translate(-29.132379,-4.0090429)">
      <path
         style="fill:#000000;stroke-width:0.340681"
         d="m 83.555272,213.79657 -0.828636,-0.84387 v -0.98131 c 0,-1.15179 0.546095,-2.01026 1.646439,-2.58818 l 0.79096,-0.41543 3.674118,-9.11065 3.674119,-9.11065 -0.206721,-1.60774 -0.206722,-1.60774 0.868828,-0.8848 c 1.021567,-1.04033 2.033622,-1.1178 3.431464,-0.26264 l 1.012772,0.61959 8.846327,-0.53492 8.84632,-0.53492 0.38599,-0.39453 0.38598,-0.39452 -3.29677,-11.81031 -3.29678,-11.81031 -1.12485,-1.07776 -1.12484,-1.07777 v -1.0866 -1.08659 l 0.82864,-0.84387 0.82863,-0.84387 h 1.06699 1.06698 l 1.05832,1.17232 1.0583,1.17233 10.19284,3.25191 10.19284,3.2519 1.2351,-0.3846 1.23511,-0.38461 4.59765,-6.80847 4.59764,-6.80847 -0.0994,-1.17497 -0.0994,-1.17497 0.85367,-0.86936 0.85366,-0.86936 h 1.04348 1.04346 l 0.82863,0.84387 0.82864,0.84387 v 1.06264 1.06266 l -0.82864,0.84386 c -0.45574,0.46413 -1.12985,0.84386 -1.49801,0.84386 h -0.66938 l -4.65408,6.88186 -4.65407,6.88185 0.10047,1.18754 0.10046,1.18753 -0.85366,0.86937 -0.85367,0.86936 h -1.06699 -1.06698 l -1.05832,-1.17164 -1.0583,-1.17163 -10.12776,-3.2671 c -5.57027,-1.79691 -10.16293,-3.23218 -10.20592,-3.1895 -0.043,0.0427 1.38794,5.32769 3.17983,11.74445 l 3.25797,11.66683 1.12448,1.07776 1.12448,1.07777 v 1.0866 1.0866 l -0.82864,0.84387 c -0.98353,1.00162 -2.00866,1.06814 -3.39126,0.22008 l -1.01278,-0.62121 -8.95456,0.53654 -8.954563,0.53656 -0.498008,0.42987 c -0.273909,0.23643 -0.820751,0.70055 -1.215207,1.03139 l -0.71718,0.60153 -3.589475,8.95927 -3.589457,8.95927 0.213353,1.58517 0.213343,1.58516 -0.870837,0.88685 -0.870837,0.88685 H 85.42737 84.383907 Z"
         id="path902" />
      <text
         xml:space="preserve"
         id="text906"
         style="font-style:normal;font-weight:normal;font-size:10.5833px;line-height:1.25;font-family:sans-serif;white-space:pre;shape-inside:url(#rect910);fill:#000000;fill-opacity:1;stroke:none;"
         inkscape:transform-center-x="48.53657"
         inkscape:transform-center-y="-6.7725406"
         transform="matrix(1.9908796,0,0,1.9908796,-111.46581,-221.97081)"><tspan
           x="109.99023"
           y="217.35273"><tspan>GIS</tspan></tspan></text>
    </g>
  </g>
</svg>
